HIERARCHY
ROOT Hips
{
    OFFSET 0.000000 0.000000 0.000000
    CHANNELS 6 Xposition Yposition Zposition Zrotation Xrotation Yrotation
    JOINT Spine
    {
        OFFSET -0.000000 14.517291 0.000000
        CHANNELS 3 Zrotation Xrotation Yrotation
        JOINT Spine1
        {
            OFFSET -0.000000 37.558300 0.000000
            CHANNELS 3 Zrotation Xrotation Yrotation
            JOINT Neck
            {
                OFFSET -0.000000 37.404057 3.400369
                CHANNELS 3 Zrotation Xrotation Yrotation
                JOINT Head
                {
                    OFFSET -0.000000 24.785618 -3.540803
                    CHANNELS 3 Zrotation Xrotation Yrotation
                    End Site
                    {
                        OFFSET -0.000000 35.408028 0.000000
                    }
                }
            }
            JOINT LeftShoulder
            {
                OFFSET 6.992933 33.973492 -0.192664
                CHANNELS 3 Zrotation Xrotation Yrotation
                JOINT LeftArm
                {
                    OFFSET 21.527611 0.000000 0.000000
                    CHANNELS 3 Zrotation Xrotation Yrotation
                    JOINT LeftForeArm
                    {
                        OFFSET 56.353916 0.000000 0.000000
                        CHANNELS 3 Zrotation Xrotation Yrotation
                        JOINT LeftHand
                        {
                            OFFSET 47.774071 0.000000 0.000000
                            CHANNELS 3 Zrotation Xrotation Yrotation
                            End Site
                            {
                                OFFSET 26.556021 0.000000 0.000000
                            }
                        }
                    }
                }
            }
            JOINT RightShoulder
            {
                OFFSET -7.065357 33.973492 -0.192664
                CHANNELS 3 Zrotation Xrotation Yrotation
                JOINT RightArm
                {
                    OFFSET -21.527611 0.000000 0.000000
                    CHANNELS 3 Zrotation Xrotation Yrotation
                    JOINT RightForeArm
                    {
                        OFFSET -56.353916 0.000000 0.000000
                        CHANNELS 3 Zrotation Xrotation Yrotation
                        JOINT RightHand
                        {
                            OFFSET -47.774071 0.000000 0.000000
                            CHANNELS 3 Zrotation Xrotation Yrotation
                            End Site
                            {
                                OFFSET -26.556021 0.000000 0.000000
                            }
                        }
                    }
                }
            }
        }
    }
    JOINT LeftUpLeg
    {
        OFFSET 17.704014 0.000000 0.000000
        CHANNELS 3 Zrotation Xrotation Yrotation
        JOINT LeftLeg
        {
            OFFSET -0.000000 -81.181816 0.000000
            CHANNELS 3 Zrotation Xrotation Yrotation
            JOINT LeftFoot
            {
                OFFSET -0.000000 -62.821102 0.000000
                CHANNELS 3 Zrotation Xrotation Yrotation
                JOINT LeftToeBase
                {
                    OFFSET -0.000000 -11.507608 26.556021
                    CHANNELS 3 Zrotation Xrotation Yrotation
                    End Site
                    {
                        OFFSET -0.000000 0.000000 7.081605
                    }
                }
            }
        }
    }
    JOINT RightUpLeg
    {
        OFFSET -17.704014 0.000000 0.000000
        CHANNELS 3 Zrotation Xrotation Yrotation
        JOINT RightLeg
        {
            OFFSET -0.000000 -81.181816 0.000000
            CHANNELS 3 Zrotation Xrotation Yrotation
            JOINT RightFoot
            {
                OFFSET -0.000000 -62.821102 0.000000
                CHANNELS 3 Zrotation Xrotation Yrotation
                JOINT RightToeBase
                {
                    OFFSET -0.000000 -11.507608 26.556021
                    CHANNELS 3 Zrotation Xrotation Yrotation
                    End Site
                    {
                        OFFSET -0.000000 0.000000 7.081605
                    }
                }
            }
        }
    }
}
MOTION
Frames:    12
Frame Time:    0.008333
14.691642    152.728470    -107.050346    -0.721462    -2.123896    23.323290    -0.281791    -1.956153    2.037646    -6.398951    3.256038    0.863666    14.398617    -5.529303    -0.729240    4.132292    7.826316    -3.310112    7.953229    5.567487    -19.686104    -28.188160    20.630669    -59.989555    -15.563500    1.111354    -92.819839    17.363306    -16.064005    -5.401895    -13.772957    -4.705447    -0.983140    26.317743    -22.041771    64.345596    -14.306348    -14.578131    47.978443    -10.295806    -10.796134    27.523895    10.803749    -9.081553    -1.006595    -15.688770    43.783928    -18.291796    14.494142    -27.960171    46.087643    0.000000    0.000000    0.000000    -22.562531    -17.695894    -40.379230    10.255876    19.281868    -24.776558    -7.051171    10.932920    -23.362408    0.000000    0.000000    0.000000    
14.632577    152.708862    -107.069221    -0.723649    -2.121598    23.317221    -0.301525    -1.956167    2.037856    -6.367755    3.279574    0.864327    14.399858    -5.518450    -0.727122    4.123667    7.799697    -3.306456    7.960015    5.564056    -19.687506    -28.162926    20.652584    -60.009888    -15.545657    1.051723    -92.833488    17.404514    -16.107117    -5.394238    -13.770745    -4.699611    -0.985220    26.332193    -22.075243    64.356476    -14.277941    -14.556536    47.950649    -10.292925    -10.792566    27.548719    10.827617    -9.119287    -1.019009    -15.720854    43.828308    -18.284668    14.499434    -27.973412    46.124550    0.000000    0.000000    0.000000    -22.576675    -17.729145    -40.324993    10.314474    19.343861    -24.838902    -7.049771    10.867232    -23.369770    0.000000    0.000000    0.000000    
14.572803    152.691971    -107.090469    -0.729120    -2.107717    23.306564    -0.324353    -1.956639    2.044672    -6.339868    3.285693    0.866208    14.419649    -5.494766    -0.728693    4.102242    7.755103    -3.309045    7.973393    5.546439    -19.690073    -28.181602    20.663397    -60.016407    -15.527221    1.048470    -92.815529    17.406837    -16.085094    -5.388606    -13.750532    -4.706836    -1.004066    26.328194    -22.071798    64.369606    -14.272839    -14.557865    47.919495    -10.294678    -10.805245    27.591537    10.849638    -9.161262    -1.025087    -15.749422    43.851948    -18.232649    14.480330    -27.990780    46.101727    0.000000    0.000000    0.000000    -22.589409    -17.777353    -40.303165    10.357121    19.405891    -24.906158    -7.069455    10.810189    -23.344263    0.000000    0.000000    0.000000    
14.515898    152.677734    -107.111954    -0.732541    -2.089993    23.293941    -0.343455    -1.966473    2.050581    -6.313648    3.301678    0.868484    14.411081    -5.505152    -0.729697    4.105971    7.758317    -3.309542    7.974001    5.528808    -19.692991    -28.191092    20.660597    -60.008556    -15.545503    1.056376    -92.810829    17.458178    -16.095505    -5.373339    -13.753358    -4.717079    -1.001197    26.331858    -22.071571    64.358353    -14.271824    -14.576288    47.910400    -10.306340    -10.825925    27.562969    10.865076    -9.201632    -1.016253    -15.751794    43.877609    -18.230074    14.469945    -28.004614    46.097488    0.000000    0.000000    0.000000    -22.614246    -17.825327    -40.281544    10.418679    19.473017    -24.961498    -7.060872    10.747325    -23.356873    0.000000    0.000000    0.000000    
14.461799    152.661316    -107.129906    -0.731893    -2.075846    23.282743    -0.364610    -1.969575    2.064504    -6.291381    3.310777    0.873122    14.423331    -5.500996    -0.735741    4.087007    7.738472    -3.318492    7.983946    5.518934    -19.700983    -28.208572    20.655777    -60.006954    -15.545961    1.058493    -92.790184    17.398811    -16.086901    -5.383449    -13.739446    -4.712357    -1.023311    26.326788    -22.064703    64.368828    -14.278532    -14.609467    47.895821    -10.310501    -10.854650    27.507767    10.873626    -9.236816    -1.009779    -15.752556    43.901817    -18.205235    14.443490    -28.031651    46.084641    0.000000    0.000000    0.000000    -22.648336    -17.866819    -40.284618    10.477143    19.552137    -25.021740    -7.068990    10.687516    -23.316040    0.000000    0.000000    0.000000    
14.407055    152.644592    -107.150696    -0.734311    -2.056709    23.273836    -0.369879    -1.976713    2.068074    -6.291818    3.316318    0.874587    14.454280    -5.492289    -0.726615    4.053181    7.718346    -3.315925    8.000551    5.517609    -19.701353    -28.231749    20.624918    -59.993328    -15.557492    1.089150    -92.768082    17.362370    -16.064964    -5.405788    -13.738704    -4.718122    -1.022141    26.335012    -22.050961    64.359055    -14.283652    -14.645773    47.895653    -10.302708    -10.883370    27.466276    10.883786    -9.280996    -1.011014    -15.751008    43.932178    -18.188728    14.430232    -28.043318    46.067089    0.000000    0.000000    0.000000    -22.686199    -17.913303    -40.293213    10.538961    19.630615    -25.084423    -7.068118    10.636176    -23.285805    0.000000    0.000000    0.000000    
14.354966    152.628357    -107.164673    -0.733665    -2.042120    23.257299    -0.374882    -1.981007    2.085382    -6.286518    3.325257    0.880730    14.437574    -5.500396    -0.735516    4.069106    7.715991    -3.321572    8.006747    5.512640    -19.697590    -28.229351    20.614687    -59.994400    -15.575223    1.093034    -92.762138    17.320644    -16.077028    -5.411279    -13.742523    -4.728996    -1.042722    26.332842    -22.022299    64.360542    -14.306332    -14.691444    47.884148    -10.250348    -10.908778    27.467628    10.895031    -9.310460    -0.986880    -15.734676    43.957859    -18.199501    14.417377    -28.060823    46.060696    0.000000    0.000000    0.000000    -22.726084    -17.956751    -40.293835    10.611560    19.712290    -25.162447    -7.091823    10.581969    -23.248009    0.000000    0.000000    0.000000    
14.301019    152.610962    -107.175400    -0.732292    -2.028433    23.246260    -0.411610    -2.006136    2.094249    -6.226109    3.336185    0.882603    14.420714    -5.440559    -0.734586    4.061296    7.667202    -3.308452    7.990488    5.526470    -19.737156    -28.219561    20.592899    -59.963863    -15.604739    1.080931    -92.764893    17.422588    -16.120041    -5.376056    -13.783414    -4.708993    -1.006823    26.368158    -22.056705    64.348000    -14.293886    -14.695702    47.864426    -10.240992    -10.921741    27.493273    10.906778    -9.342586    -0.977727    -15.729032    43.988106    -18.181568    14.381872    -28.093971    46.038609    0.000000    0.000000    0.000000    -22.765440    -17.992685    -40.319496    10.675308    19.783842    -25.202259    -7.106722    10.543829    -23.223822    0.000000    0.000000    0.000000    
14.251843    152.589874    -107.179260    -0.728525    -2.017224    23.235643    -0.388231    -1.985701    2.099045    -6.259906    3.308789    0.883487    14.376875    -5.456689    -0.740727    4.119032    7.683717    -3.304315    7.972999    5.510772    -19.726267    -28.202484    20.610273    -59.917046    -15.605062    1.093803    -92.787697    17.356422    -16.114782    -5.399014    -13.792400    -4.691120    -1.029619    26.421438    -22.042328    64.392052    -14.315720    -14.716163    47.875870    -10.190974    -10.916115    27.461811    10.917016    -9.369764    -0.976637    -15.724634    44.018944    -18.196634    14.376310    -28.120264    46.052498    0.000000    0.000000    0.000000    -22.806177    -18.027231    -40.366852    10.725455    19.871239    -25.236559    -7.128173    10.482334    -23.168318    0.000000    0.000000    0.000000    
14.202484    152.565201    -107.179733    -0.715503    -2.014742    23.227337    -0.432910    -1.999877    2.104509    -6.205051    3.321395    0.884547    14.382731    -5.404891    -0.740799    4.096966    7.640217    -3.299062    7.964769    5.517394    -19.763069    -28.206657    20.587233    -59.884274    -15.640553    1.107523    -92.780388    17.470669    -16.143147    -5.405552    -13.806071    -4.676331    -0.988969    26.417826    -22.061380    64.368668    -14.321907    -14.744889    47.858810    -10.181366    -10.943631    27.470970    10.921794    -9.393546    -0.969135    -15.716800    44.070305    -18.215990    14.367196    -28.142899    46.056957    0.000000    0.000000    0.000000    -22.850960    -18.052603    -40.411861    10.778622    19.957130    -25.258049    -7.166001    10.428559    -23.142628    0.000000    0.000000    0.000000    
14.152333    152.539352    -107.176971    -0.706096    -2.016895    23.217062    -0.441881    -1.997633    2.107865    -6.206890    3.316476    0.885353    14.395861    -5.346696    -0.744592    4.099989    7.588375    -3.296131    7.973640    5.537818    -19.778469    -28.178511    20.579842    -59.866432    -15.646818    1.088570    -92.786118    17.514021    -16.172213    -5.411055    -13.787208    -4.652197    -0.959670    26.402351    -22.064602    64.360321    -14.350584    -14.777651    47.846447    -10.189523    -10.970168    27.495226    10.937336    -9.414220    -0.967936    -15.727441    44.123699    -18.212805    14.358613    -28.168886    46.054249    0.000000    0.000000    0.000000    -22.887421    -18.080322    -40.445194    10.820909    20.053511    -25.259470    -7.171770    10.360348    -23.139946    0.000000    0.000000    0.000000    
14.106718    152.512619    -107.170990    -0.694376    -2.022988    23.205421    -0.442233    -1.990899    2.108436    -6.213574    3.333935    0.886661    14.404864    -5.359365    -0.728979    4.098744    7.587775    -3.283349    7.973071    5.528035    -19.765789    -28.168329    20.586193    -59.842209    -15.611901    1.079070    -92.796814    17.422035    -16.146187    -5.428955    -13.774905    -4.668830    -0.970756    26.408121    -22.041908    64.387894    -14.375287    -14.802109    47.841999    -10.204950    -10.989771    27.509243    10.946779    -9.430812    -0.965765    -15.743246    44.176682    -18.218792    14.367200    -28.185781    46.092537    0.000000    0.000000    0.000000    -22.923000    -18.105207    -40.447681    10.872326    20.145693    -25.278339    -7.197896    10.305630    -23.144329    0.000000    0.000000    0.000000    
